<mxfile host="app.diagrams.net" modified="2024-04-14T19:00:54.218Z" agent="Mozilla/5.0 (Windows NT 10.0; Win64; x64) AppleWebKit/537.36 (KHTML, like Gecko) Chrome/123.0.0.0 Safari/537.36" etag="Am4_rI_6xJB9uW4nkjt6" version="24.2.3" type="device">
  <diagram name="Page-1" id="IIlBJR4tY_RF3k7j_bKi">
    <mxGraphModel dx="2278" dy="982" grid="1" gridSize="10" guides="1" tooltips="1" connect="1" arrows="1" fold="1" page="0" pageScale="1" pageWidth="850" pageHeight="1100" math="0" shadow="0">
      <root>
        <mxCell id="0" />
        <mxCell id="1" parent="0" />
        <mxCell id="EfarVEtjQRPdv6SVDDEV-4" value="Event Service" style="html=1;whiteSpace=wrap;" vertex="1" parent="1">
          <mxGeometry x="160" y="120" width="120" height="40" as="geometry" />
        </mxCell>
        <mxCell id="EfarVEtjQRPdv6SVDDEV-11" value="DB" style="shape=cylinder3;whiteSpace=wrap;html=1;boundedLbl=1;backgroundOutline=1;size=15;" vertex="1" parent="1">
          <mxGeometry x="622" y="99.75" width="60" height="80" as="geometry" />
        </mxCell>
        <mxCell id="EfarVEtjQRPdv6SVDDEV-13" value="" style="shape=umlLifeline;perimeter=lifelinePerimeter;whiteSpace=wrap;html=1;container=1;dropTarget=0;collapsible=0;recursiveResize=0;outlineConnect=0;portConstraint=eastwest;newEdgeStyle={&quot;curved&quot;:0,&quot;rounded&quot;:0};participant=umlActor;" vertex="1" parent="1">
          <mxGeometry x="10" y="120" width="20" height="640" as="geometry" />
        </mxCell>
        <mxCell id="EfarVEtjQRPdv6SVDDEV-17" value="" style="endArrow=none;dashed=1;html=1;rounded=0;entryX=0.474;entryY=1.064;entryDx=0;entryDy=0;entryPerimeter=0;" edge="1" parent="1" source="EfarVEtjQRPdv6SVDDEV-25" target="EfarVEtjQRPdv6SVDDEV-4">
          <mxGeometry width="50" height="50" relative="1" as="geometry">
            <mxPoint x="217" y="320" as="sourcePoint" />
            <mxPoint x="250" y="190" as="targetPoint" />
          </mxGeometry>
        </mxCell>
        <mxCell id="EfarVEtjQRPdv6SVDDEV-18" value="" style="endArrow=none;dashed=1;html=1;rounded=0;entryX=0.436;entryY=1.014;entryDx=0;entryDy=0;entryPerimeter=0;" edge="1" parent="1" source="EfarVEtjQRPdv6SVDDEV-186">
          <mxGeometry width="50" height="50" relative="1" as="geometry">
            <mxPoint x="652" y="640" as="sourcePoint" />
            <mxPoint x="651.75" y="180" as="targetPoint" />
          </mxGeometry>
        </mxCell>
        <mxCell id="EfarVEtjQRPdv6SVDDEV-24" value="" style="endArrow=none;dashed=1;html=1;rounded=0;entryX=0.474;entryY=1.064;entryDx=0;entryDy=0;entryPerimeter=0;" edge="1" parent="1" target="EfarVEtjQRPdv6SVDDEV-25">
          <mxGeometry width="50" height="50" relative="1" as="geometry">
            <mxPoint x="220" y="760" as="sourcePoint" />
            <mxPoint x="217" y="163" as="targetPoint" />
          </mxGeometry>
        </mxCell>
        <mxCell id="EfarVEtjQRPdv6SVDDEV-25" value="" style="html=1;points=[[0,0,0,0,5],[0,1,0,0,-5],[1,0,0,0,5],[1,1,0,0,-5]];perimeter=orthogonalPerimeter;outlineConnect=0;targetShapes=umlLifeline;portConstraint=eastwest;newEdgeStyle={&quot;curved&quot;:0,&quot;rounded&quot;:0};" vertex="1" parent="1">
          <mxGeometry x="212" y="201" width="10" height="30" as="geometry" />
        </mxCell>
        <mxCell id="EfarVEtjQRPdv6SVDDEV-39" value="" style="endArrow=classic;html=1;rounded=0;" edge="1" parent="1">
          <mxGeometry width="50" height="50" relative="1" as="geometry">
            <mxPoint x="100.10000000000002" y="201" as="sourcePoint" />
            <mxPoint x="210" y="201" as="targetPoint" />
            <Array as="points">
              <mxPoint x="130" y="201" />
            </Array>
          </mxGeometry>
        </mxCell>
        <mxCell id="EfarVEtjQRPdv6SVDDEV-40" value="Request all available events" style="text;html=1;align=left;verticalAlign=middle;whiteSpace=wrap;rounded=0;fontSize=6;" vertex="1" parent="1">
          <mxGeometry x="104" y="189" width="108" height="7" as="geometry" />
        </mxCell>
        <mxCell id="EfarVEtjQRPdv6SVDDEV-41" value="" style="endArrow=classic;html=1;rounded=0;" edge="1" parent="1" target="EfarVEtjQRPdv6SVDDEV-43">
          <mxGeometry width="50" height="50" relative="1" as="geometry">
            <mxPoint x="222" y="201" as="sourcePoint" />
            <mxPoint x="500" y="200" as="targetPoint" />
            <Array as="points" />
          </mxGeometry>
        </mxCell>
        <mxCell id="EfarVEtjQRPdv6SVDDEV-43" value="" style="html=1;points=[[0,0,0,0,5],[0,1,0,0,-5],[1,0,0,0,5],[1,1,0,0,-5]];perimeter=orthogonalPerimeter;outlineConnect=0;targetShapes=umlLifeline;portConstraint=eastwest;newEdgeStyle={&quot;curved&quot;:0,&quot;rounded&quot;:0};" vertex="1" parent="1">
          <mxGeometry x="647" y="200" width="10" height="10" as="geometry" />
        </mxCell>
        <mxCell id="EfarVEtjQRPdv6SVDDEV-44" value="Query to get available events" style="text;html=1;align=left;verticalAlign=middle;whiteSpace=wrap;rounded=0;fontSize=6;" vertex="1" parent="1">
          <mxGeometry x="223" y="188" width="115" height="9" as="geometry" />
        </mxCell>
        <mxCell id="EfarVEtjQRPdv6SVDDEV-47" value="Return all available events" style="text;html=1;align=left;verticalAlign=middle;whiteSpace=wrap;rounded=0;fontSize=6;" vertex="1" parent="1">
          <mxGeometry x="574" y="211" width="73" height="9" as="geometry" />
        </mxCell>
        <mxCell id="EfarVEtjQRPdv6SVDDEV-55" value="Order Service" style="html=1;whiteSpace=wrap;" vertex="1" parent="1">
          <mxGeometry x="320" y="120" width="120" height="40" as="geometry" />
        </mxCell>
        <mxCell id="EfarVEtjQRPdv6SVDDEV-56" value="" style="endArrow=none;dashed=1;html=1;rounded=0;entryX=0.474;entryY=1.064;entryDx=0;entryDy=0;entryPerimeter=0;" edge="1" parent="1">
          <mxGeometry width="50" height="50" relative="1" as="geometry">
            <mxPoint x="369.8299999999999" y="442" as="sourcePoint" />
            <mxPoint x="369.83" y="160" as="targetPoint" />
          </mxGeometry>
        </mxCell>
        <mxCell id="EfarVEtjQRPdv6SVDDEV-57" style="edgeStyle=orthogonalEdgeStyle;rounded=0;orthogonalLoop=1;jettySize=auto;html=1;exitX=0.5;exitY=1;exitDx=0;exitDy=0;" edge="1" parent="1" source="EfarVEtjQRPdv6SVDDEV-44" target="EfarVEtjQRPdv6SVDDEV-44">
          <mxGeometry relative="1" as="geometry" />
        </mxCell>
        <mxCell id="EfarVEtjQRPdv6SVDDEV-58" value="" style="endArrow=classic;html=1;rounded=0;" edge="1" parent="1">
          <mxGeometry width="50" height="50" relative="1" as="geometry">
            <mxPoint x="102.00000000000003" y="260.95" as="sourcePoint" />
            <mxPoint x="212" y="260" as="targetPoint" />
            <Array as="points">
              <mxPoint x="131.9" y="260.95" />
            </Array>
          </mxGeometry>
        </mxCell>
        <mxCell id="EfarVEtjQRPdv6SVDDEV-61" value="Select a desired event&amp;nbsp;" style="text;html=1;align=center;verticalAlign=middle;whiteSpace=wrap;rounded=0;fontSize=6;" vertex="1" parent="1">
          <mxGeometry x="19" y="250" width="73" height="10" as="geometry" />
        </mxCell>
        <mxCell id="EfarVEtjQRPdv6SVDDEV-74" value="" style="endArrow=none;dashed=1;html=1;rounded=0;" edge="1" parent="1" source="EfarVEtjQRPdv6SVDDEV-136">
          <mxGeometry width="50" height="50" relative="1" as="geometry">
            <mxPoint x="370.07" y="440" as="sourcePoint" />
            <mxPoint x="370" y="760" as="targetPoint" />
          </mxGeometry>
        </mxCell>
        <mxCell id="EfarVEtjQRPdv6SVDDEV-75" value="" style="endArrow=classic;html=1;rounded=0;dashed=1;" edge="1" parent="1" source="EfarVEtjQRPdv6SVDDEV-43" target="EfarVEtjQRPdv6SVDDEV-208">
          <mxGeometry width="50" height="50" relative="1" as="geometry">
            <mxPoint x="503.0000000000001" y="229.49" as="sourcePoint" />
            <mxPoint x="223" y="229.49" as="targetPoint" />
          </mxGeometry>
        </mxCell>
        <mxCell id="EfarVEtjQRPdv6SVDDEV-76" value="" style="endArrow=classic;html=1;rounded=0;dashed=1;" edge="1" parent="1">
          <mxGeometry width="50" height="50" relative="1" as="geometry">
            <mxPoint x="210" y="230" as="sourcePoint" />
            <mxPoint x="106" y="230" as="targetPoint" />
            <Array as="points">
              <mxPoint x="128.95" y="230" />
            </Array>
          </mxGeometry>
        </mxCell>
        <mxCell id="EfarVEtjQRPdv6SVDDEV-77" value="Response with available events" style="text;html=1;align=left;verticalAlign=middle;whiteSpace=wrap;rounded=0;fontSize=6;" vertex="1" parent="1">
          <mxGeometry x="128" y="229" width="89" height="16" as="geometry" />
        </mxCell>
        <mxCell id="EfarVEtjQRPdv6SVDDEV-78" value="" style="html=1;points=[[0,0,0,0,5],[0,1,0,0,-5],[1,0,0,0,5],[1,1,0,0,-5]];perimeter=orthogonalPerimeter;outlineConnect=0;targetShapes=umlLifeline;portConstraint=eastwest;newEdgeStyle={&quot;curved&quot;:0,&quot;rounded&quot;:0};" vertex="1" parent="1">
          <mxGeometry x="212" y="260" width="10" height="30" as="geometry" />
        </mxCell>
        <mxCell id="EfarVEtjQRPdv6SVDDEV-80" value="" style="shape=image;verticalLabelPosition=bottom;labelBackgroundColor=default;verticalAlign=top;aspect=fixed;imageAspect=0;image=data:image/png,iVBORw0KGgoAAAANSUhEUgAAAQAAAAEACAMAAABrrFhUAAABJlBMVEVHcExEbnlEbnlEbnlEbnlEbnlEbnlEbnlEbnlEbnlEbnlEbnlEbnk2XGdDbXhEbnlEbnk7Y205YGs9ZXBCa3ZAaXNBanU8ZG84Xmk3XWg+ZnE/Z3JCbHdEbnk6YWxDbXhEbXg/aHI1W2b///9EbnmarbPN1tlohIzz9fZCZXCBmaDm6+xbeoO0wsba4eNOcHmOo6l0jpbAzNCnuLz09vdQd4FDbXg2XGe5yc3d5OaKpatBa3VbgIpniZLR2944Xmlzkpuit7w7Ym0+Z3Lo7e+WrrR/m6PF0tWuwMU3XWg/aHM8ZG89ZnA8Y25CbHY5YGo6YWxAaXTo7e6gtLrn6+3BzdG4x8vb4+WIoaiHoajE0dRkhY5afodNdH5Udn+Dm6G0w8dDZnFKNeFZAAAAInRSTlMAh/Zw78BX/h/cz/uv/iOcPOPzymCSe9f4/LqnROfs9sDH8C3FNwAAFJxJREFUeNrkXWlz28gRtcRbUsXK7sZJtspJFW4MbkC0JS0lS15T0q6z2VRSlaRS+ZD//ytCkSIwM+g5AZCg3d9sHUQ/dL9+3XPo1avd2nQwGI1mw+GxRdnxcDgbjQaD6asv1cZHo7dDS8KGb0dH4y/M97PZsaVox7OzLwOFwWhoadtwNDjwN9/A+RKEQ42Eo5NTqyU7PTk6OO9nE6tVm8wOCINx295vMTiIXJienVqd2elZ32XCYGZ1bLM+14XXp9YO7PR1T2N/NLF2ZJNR/zLh/GRn7q8hODnvl/sza+c2O+9R8Ft7sZ4kwg5zv5dcsBvm721FGA+tPdtwn/JwemL1wE72lgdHE6sXNtlPn3Q+tHpjwz2UxLOJ1SObnO06+4dWz2w4/Rqzf09M0A/y3185GB9bPbXj8dca/rtMgxOr13by1bH/bqvB+NTqvXVJBIOJdQA26Wxs+to6EOuoRx5ZB2OjLvyfWQdks6/c/w4QODD/20ZgemwdnB1Pv27/W0XgIP1fIdDz/F/cPdxv7e7urr88MGvb7/v729sLs25Xt0/Lu3nvEGjR/5vrp1tTZJ8el3d9QqAt/XezfLwwpe12edMTTdiK/p8/XCo4v42Ey4ce9AWDFh7h+tHUtIvLFpKhUW84btz/3mm8e9z+/o//Nu2Ox/sTQPPlJ7O5/adhGDQQRM3mX4sn8cuP0jTyxHRw3WxKtpf55+JS/G6dxFiZn5sdQ6A5KT3q2H0zMl4sNTuG4GjHBMhxPwjq/hsGqr7usCF42CkR6hPg/J6Z+zHyy4zPDcyi8luSJGLLo5sdEqE2ATwwmd9xMU8DHwfAiMtvMgwOBE/zXdGALgEsmGI/yFZ+JuU/Q8J/Iykjw33+V956HijSwFSTAJbM6LfJUC8MylIsBFbmBqxf9KgXBJPpDhQA+/VvCl4VAJ5PA1Algbv+p18wBfJD92rgTC/7Ba8fCwBU899wyRDgBcGT1uMp7KI510mAObP2Bdt8LwMgMABzaHpgK6SrhU4SnHeaAIsrZviX4V5wAgALgUog2K2mwbDLCnBHhH/smZDe8XgBgIVARRCo+kVeTjQN991VAp0KcI0/m4cwOZcCeg/BALjAz4QYAi6hEi/nXVUCDQlEpH/uY0IGAW/YK4u/u7ZSEgRAhGAIxH6KB8HVvBs5NG5Gfx7Cexvc/5ICYzt3HLoJdhzHdiCVhCHgGEncjArHXTDgHKe/ODEy2H+pnq/OGwQCBcmLFzcd8ODrRv4XuKjF/A9RFCuNgeIIhQACq9+YeU0QEM5Ip6cN/F+Fv+HHtP9hmnumjnl5mlAIeCtU8DRQRuBUxIOjJv6HeK1fx7GPIj3nS8kUPfdQVVbFlEBSRmDUbgnE/Y994lFXjJXmZgvm5chPTaKLivQREJTCUUP/q3lH0I7322iq+gKXItSLeYshcK4YT480cSs57TkvFiglhU8O0ZT1wHl7C6GXtP+ZjANOZCPXpWVg6Ga27TgSv6Cgxojmv1pbMFUMgCXtvy9BeAwZXJPDHHNpBP73c0shoBYADzXhUnDee73RgW2LocPWDTE9SjbTj60IYrUScHNB+x+yHrjIfJt8eLblZaD7WcEgh7SGgPvruxYKwUizAMQ+1c5SNQz/mi0CABFIJSn4S316XOD5H/7avBBM9AjwxX9giOetVczayPzlWELnio8ceMJM6AHHeP+DfAi00AVUAwBvI1fTGgHmCOA2Q2jbsM8wUNKAMWV18LHjjw07ApUuYHFBDvhdmrICO8G9sqmBJ8cicHDuRuCg1Q/w5/hFuiNovBnklihrteh3EGPaZYsBQAysfJuKsTgk+qRngfQ3WSocNKyBS6IA0PPr3GUWN1cMQMjMFh8F9SBAhECSpUJADE21EuCZAKnXHyUqTnGUAAQWBcFzEESEQJKlwmmjtZBbLPGSGF4D4dQ2gTn10ShTKXoIo4HNb5ejwrMmFHiNKZLMg0s0aQVrRRAyG5qL1Wfn5XeFFPi/aNGgwih0flEVX5u1CAY/NZIBwOWGS61ZiEuVua3IUlQ41qfA+2oCFLE0GmWMNXHYfD5h1GSRF8aUJpehwpm2ClxUtBubcgGQqHBgJYVCbpnEELDpXQcSVDjRXg3DNHBdpcMBkKlwoDBhgA7Jo1eWJajwSDMD7qTn+bK0xvx2hmpKxbMCGSqcaWYAd797yG9xbTkAEF83l2MXaPxS/czHdwo5cNQoAPJYEOKOvA7EZVMg6BYCxAsB48M7+RyQXw8Fdn7biWjcVW6BkwPAEHBmWfiz0OOEgIgKT3RU0AIa8qX8GqhaBCqacwVfX4mgmJeG73+U1EJjjRJQLtpX25sigbJxZAFw6iMBkAY9YiUOeorPclpIug+Y10UI9oJFz5vLAiAoA8Qn1hEgEo1HhWfqK+JLwH/8fej5w0SMWTZjrLeoIUB+DIcKq7Vy6Qz4BPhfFrlIU9ho5EyK1wkaAap4cKhQeRZ0B/KNKANUq6C4DlY5EEIIUA/CpsKB6jj8ElrkyUQZQFRB/3lTUGqvbbs06OSbf6Nyv5CwbMTEzICqhrVQ/CwYjw/1KNAme/1cCIAjuVUgdoTCwSY/NBR0JAwqHCpSwDWp/6iXAWV4snrZudreGHoBOV8Fhs9MEg/sD+qPwqBCRRXwSM4hqO6dfFsusp0mntP6LrLdhDc4zKF3I6TCsZIKmIOCK6MJK8lstQV/BRiKcudUTg0O/UDQlYNUeKbUCv8bWJ+sKGC9I8i1Hc/s2Bw78wFx5QrX4D+zWmLZw0H/BFuOcoabFbG5K4sLu1Z7CuFcor6GfqzEgRdgx2Hu2UpmwJOAUZLrVKjCgTeg2gwVd72VVR+5hGXr/yxWX1aMo6w2eONMZn76AWDBI/U+oOp7fVv+UVPfUJWCMpTgQvPilPGL3/9cH4qM1IsgKpdsPZGksVOFlfGadvKMVWhEAmItF6JdbiF8sb/UtOBbZQrYVDw/DeQKdwMAtj/ju2nBgyHPqBBg63KSCt/KC+EbMgAS9svHqrU2AA70M88Kg/WpASJDgDN9w6lwKF8ErnF0WWc7gygN1Va6BADUySxEUcCEwDGFrSlFhfLL4k/YEBR034tQ0spATNxBJwjcfx5kSLBEVafCqfQwoFoPgILfS0Pt6QZv8s0eIYTQ9jEHGg5zqXAgDQD/Ngi7wXiH1+664rkZIxkFH/CxBGCkNQtgbF3kPWihA4AEsAwTfcILFY5kAYCXBD2JvT/KI1FFAIKYv0jIp8KRbC94DYVZ6jv7A8AoU8uNuBKZS4UzWRlwD1deTxxwWgAgeQA8AyzLMh/347MQGGrNQzfuS4kcLQBciR8K8M9OHA0AVlQ4lJ0GUKvitl97C50A4MirxSxgLZJy7Nc/v7I0AIgThefMpZNSE4At//iROgDGh1caMqBo9JydAUBuH5KVHbIAwAO3vQIAiCX8rHlnACDgOaN9ApDBk5SuAEhVCa5zAGxYIHcEgGP0G4CqI+4IgKzvAKBuAFjAay49BMDtOAKMrx2AsO8ApB0DEPUdgKDrMuj2G4Cicx3g4UmQSUx7diqEUPdCiECgb1IYmTsAYL05tJ/NUFE/Yt4aALfgsEHmOaNdtcPkTES6G9QaiMQuuUEo7sFAhDpYKgnAH2RHYvQ2+ZfjkV2PxCLZkVgWgBdtCO0b7aGot56Kmf0YirqO1lB0DYDkWHwJnRBKOIuYOxyLo0BrLL623zZbGMmD/S+MeJ7ewsjGvpUFYKF9N0wqkc4dLI35sgAM1IXADhdHkfhbGHtsJT/ojTQAV7zzkpvLDFoEIBcFcpJCjxEpy4A30hskqqUhBJJOECG/PQC48pF1v44TItUqaPxGeovMEl96RwFjAyewSUR4+kEJgASxNqQ+75cLZEiJFILSm6TuSIJFrC1iQW5T29t1NknFAJXx9kiZkWsQWyUTWRkgv02OVpkZ5+KzFQpZ2AQA8mdEu+S8gr5UR5YD/6SwUfKqVmOTIhBvk0wMxcJEAOAiOxfdMFfeV5TJbJSkq6D8VtknqNHIFC4QtLEbhPmNgOvK/9bcr0/DuFt2CPudwmbpB1D3KDwqtl/aiey6rc9PKf86F1gUkryqYmXfKWyXn8M3Zex7u3y1b9tTl0GG0oGJW7DZLA8OR8HOnF5pDlQrrrnwwAQ0DVA5MrMEIy+qxPBKoDidO+9stEbtUopMsjWhekGVQ1NEP1T+kRj6ugc3jZzufA9ppbRlu8TT6ISM79WOzV1BR9MS6EPDrNlxwdrpQfrUXO1inlhwbI7DgfKHhu7BzaEBcwLxfGzSaRQOjlPYGdQP0Od1C1MnAwzFo7MLsABFQuIpX4zMgaDny4YLoXgsyHeNtGYBayGsdHia/DMiLyskSNjseKQ+X5+fXkk8wjLiLy0IAQiId02JEenRy7eqx+ep/bIbIkyE4kP7+Lwj+oYNpvRVKtIrEG9UL1Cgt4xvzg/HohY8V9Sn4hECcUkv7b98361+hcYlhIAt+mDtKzRsUQYUgP/yH/ON+iUqNyaAQCjKAaRanQpByOCfWL9KSLrr/F7jGp1bCIFAkAPKx6ZEpFFUMVf3X376/J3GRUrX0Di0EOSArzoSCQRjnQpx4Cop2UbQ+KPWVVr1v6bohaGIfhXnVKIqWMr+ELhMTH72+nuty9SgkyPlfDAXhHTWThHYVpWg0F8RehmGaFynB/1BTU/wiiM1fv5/d1fb07gRhBcICQESLgkvx0tPrfG7Ezu2dXAFUSTudFXba3uV2g9V1Vb9/3+iccLF631xdmfXTszzFQk8w+zMMzO7M375aY6oPwsygB5woOIdoEFkyYWBVOy3qbQEl6kwYKTmB/mGlGQYKA8CjDUWritvAMUTIHMGchOwXMEmqWQYcEsPlM94Py/bDqBOgNRY3SUXCOilmEG5SEIGGpWbE/U3w7wYItGBHsAHK+c9opSeZeeXGrVQNhCXmrNPE5+EUauVYUHSo7XfYS4nFTIBqbGy5alDQD3ajaW7AQQLkh6uns/WniXEvitgArFMolbKGggDCMZYNVBmQsGF0nj9O7z6RoyXd/2y0C1ioyUOjXwhmrWFbHkSvGiLqyxY+K5gdRbzUSnTCwpwQYfrA0nx3bjwx2UuIQ0UV2wQK0bI2a6u5XHYq8C9Bd4EUidhdQXja8gByGtB0CUrH4kuGcXOJmOmVAJfyRxDTY+sWWzawbJBmQNwrr5m53uiLkY9Xr4O8cFJjrgTYHCGmPE4fP6LsDA8lTGAS/VFS28/kBUIxqrwJL82JFywpNaRxIyZJUlEtkMSGfl7OlZtPVA1GC9g3l4oXt5IRVmAvbgOxRxXFBBZJtapkyqHqy1bu6Niv8+5KJI6xCBcERZgGY7F6ypRi7akHIDR6+vZOf2O0gC/DWZPBNMVr+w2YtHcJ4BeGFUKUlq4+C35BZFAuy8VC4JlOXdEyi81oMYwrnSt3HxLaUBouJ5r2/NWGGYLWbfMsiZis0inpPyJnPwDfUtXsZ2LzxqoYaqmTcofSjlAo3elce0urgGrEMSuA51bd4OcBy0OAFx+bgiALV5+IDsSGDX3fD06CK0xJvC0yH+kagDlIQC2ehuvkdpe4RD43DgugcX6cb9w3vHUwx0bOg0AsHz9jrg0H7nEt40t6CUR23JIgpERHsdVkP+8v2r9/JGpoIEsQY0ZX+dME7lLdCE+mdEpEB7rWkF+XhaAoyWrgQdixI7F/j6pAbSF7MDFTpVnX8P9H94R56NtKmkgjLAri0UNLE3bt6zEtrH739klWcvKnWbEln9SMH+A/HQpVJ0QzzWAXx5yp5iTLmggWZUTu4x6MFZztIu7TRN5+c9E5JcOhQQnzJ6uuEwNxCuKVz6D2mMJVlh8HTqRFn9lCAT0ydiXZ1xs5ileJA3KY3dAVwNT/JY57C4gvxum0Q/O8KdAx3RaagI+9VOPy6Tk3b+gB3xOCToADfz1+8o3DfmeOK+s5fHFBY65odP2APKXJwHwFbRL/P0Hl8qPSYu2SgxgsjIztgwILpAEIIfAvPnXXfHJEZHTM7veix9FXP4YjkHyD2Xkh0SCDP/wv9opZrEJ71bEswFYXF2mHkh+0QigEglm+DTlv+zLPjzPFGJ2P2hhAHGwQpEVRgA4HZrj/X8TrufOavkW+xDkFeWUOQ5h+SuA4gtSoMIh2IZp4P7WCUtUgC3K9hi14Fl88PlVpUkElf91X1oBqA1zA+bNI/9d7UyGlFXKy60m5NcPbKj1zxzAMQIA6AbMm8+zzE+kDrJcVjURKQ7AxQc4ACU3YJo/G2IqWDQ4nbBi8QEOQIUNzF3hnNkI1ECCVGQ9U6IkviQD0OEIM1c4T/90PKD78jTcqNMBqjrCmQYeF3wuVXxPavuemvhABwi5NkK4wl9L2tuilcGp4j+fexlEHEdgDZhP2AUHgB3YOqQXqoLqbRTgvBiv7E1l/EGYxp6hBSOkjC5cAz/eFvm+SHHcXewT1IQBQmvVwP0tlfVmz2lDXtN46uiTXZv8Shq4eeTdBsz64dmL0ee9e0YV0CQ/QtsKGngy1oahLvkVCNGCF68HKgRIqwbeN19+NT/AcIU1YIA0Q0kDj82XX00DS17cYPmVOCHOi+vACFWCI7MhrvASVYSdjqmNF1eH3imqDG2VcHj/Qz3h7xhViL2WWQEv1kr/+qha7JsbzYvPUOXYUnEEP1V8/E9QDWhvLC+u9vhjjmB/M3nxWR/VBZVj8Mtjk81fRzSohhe/6aN6cdjZJF7cu0C141Vrc1zh8AqtAwqe4Lfbxp5+TeFAIy8+66P1od1aNy8eHqP14uhgna7w/BKtHXu7nXXx4t6ojzYBe9Ba0fvblyD+PCR26+fFgyu0SXi136mTF/dGmyU+3BfcfG648atHhKcmen5+2bRbNS8enKLNxt7hQXW8+PyijxqAdrdTBS/uDY5RY7Alp4PVvLg3OEENw9b+gS5XeH7WOOmfz8KheK70iZvtXByjJmNntwXnxcPRKXoJaB92t2V58etBw//ztBa2dr9qibjC4ZvRyQuTHacJOzu7u91Wi7KI7Var+/U3p6d1B/r/Aep+7u7F/+5ZAAAAAElFTkSuQmCC;" vertex="1" parent="1">
          <mxGeometry x="80" y="120" width="39.5" height="39.5" as="geometry" />
        </mxCell>
        <mxCell id="EfarVEtjQRPdv6SVDDEV-81" value="" style="endArrow=none;dashed=1;html=1;rounded=0;entryX=0.474;entryY=1.064;entryDx=0;entryDy=0;entryPerimeter=0;" edge="1" parent="1" source="EfarVEtjQRPdv6SVDDEV-98">
          <mxGeometry width="50" height="50" relative="1" as="geometry">
            <mxPoint x="100" y="516" as="sourcePoint" />
            <mxPoint x="99.26" y="160" as="targetPoint" />
          </mxGeometry>
        </mxCell>
        <mxCell id="EfarVEtjQRPdv6SVDDEV-83" value="" style="endArrow=classic;html=1;rounded=0;" edge="1" parent="1" target="EfarVEtjQRPdv6SVDDEV-98">
          <mxGeometry width="50" height="50" relative="1" as="geometry">
            <mxPoint x="20" y="200" as="sourcePoint" />
            <mxPoint x="100" y="200" as="targetPoint" />
          </mxGeometry>
        </mxCell>
        <mxCell id="EfarVEtjQRPdv6SVDDEV-84" value="Browse available events" style="text;html=1;align=left;verticalAlign=middle;whiteSpace=wrap;rounded=0;fontSize=6;" vertex="1" parent="1">
          <mxGeometry x="22" y="189" width="70" height="7" as="geometry" />
        </mxCell>
        <mxCell id="EfarVEtjQRPdv6SVDDEV-86" value="" style="endArrow=classic;html=1;rounded=0;" edge="1" parent="1" target="EfarVEtjQRPdv6SVDDEV-13">
          <mxGeometry width="50" height="50" relative="1" as="geometry">
            <mxPoint x="100" y="230" as="sourcePoint" />
            <mxPoint x="70" y="210" as="targetPoint" />
          </mxGeometry>
        </mxCell>
        <mxCell id="EfarVEtjQRPdv6SVDDEV-88" value="" style="endArrow=classic;html=1;rounded=0;" edge="1" parent="1" target="EfarVEtjQRPdv6SVDDEV-100">
          <mxGeometry width="50" height="50" relative="1" as="geometry">
            <mxPoint x="20" y="260" as="sourcePoint" />
            <mxPoint x="100" y="260" as="targetPoint" />
          </mxGeometry>
        </mxCell>
        <mxCell id="EfarVEtjQRPdv6SVDDEV-89" value="Request selected event&#39;s details" style="text;html=1;align=left;verticalAlign=middle;whiteSpace=wrap;rounded=0;fontSize=6;" vertex="1" parent="1">
          <mxGeometry x="104" y="252" width="108" height="7" as="geometry" />
        </mxCell>
        <mxCell id="EfarVEtjQRPdv6SVDDEV-90" value="" style="endArrow=classic;html=1;rounded=0;" edge="1" parent="1" target="EfarVEtjQRPdv6SVDDEV-91">
          <mxGeometry width="50" height="50" relative="1" as="geometry">
            <mxPoint x="223" y="260" as="sourcePoint" />
            <mxPoint x="506" y="260" as="targetPoint" />
            <Array as="points" />
          </mxGeometry>
        </mxCell>
        <mxCell id="EfarVEtjQRPdv6SVDDEV-92" value="Query to get event&#39;s details" style="text;html=1;align=left;verticalAlign=middle;whiteSpace=wrap;rounded=0;fontSize=6;" vertex="1" parent="1">
          <mxGeometry x="226" y="250" width="94" height="9" as="geometry" />
        </mxCell>
        <mxCell id="EfarVEtjQRPdv6SVDDEV-94" value="" style="endArrow=classic;html=1;rounded=0;dashed=1;exitX=1;exitY=0;exitDx=0;exitDy=0;" edge="1" parent="1" source="EfarVEtjQRPdv6SVDDEV-95" target="EfarVEtjQRPdv6SVDDEV-78">
          <mxGeometry width="50" height="50" relative="1" as="geometry">
            <mxPoint x="648" y="289" as="sourcePoint" />
            <mxPoint x="230" y="289" as="targetPoint" />
          </mxGeometry>
        </mxCell>
        <mxCell id="EfarVEtjQRPdv6SVDDEV-95" value="Return event&#39;s details" style="text;html=1;align=left;verticalAlign=middle;whiteSpace=wrap;rounded=0;fontSize=6;" vertex="1" parent="1">
          <mxGeometry x="706" y="289" width="68" height="9" as="geometry" />
        </mxCell>
        <mxCell id="EfarVEtjQRPdv6SVDDEV-96" value="" style="endArrow=classic;html=1;rounded=0;dashed=1;" edge="1" parent="1">
          <mxGeometry width="50" height="50" relative="1" as="geometry">
            <mxPoint x="210" y="290" as="sourcePoint" />
            <mxPoint x="106" y="290" as="targetPoint" />
            <Array as="points">
              <mxPoint x="129.95" y="290" />
            </Array>
          </mxGeometry>
        </mxCell>
        <mxCell id="EfarVEtjQRPdv6SVDDEV-97" value="Response with requested event&#39;s details:&amp;nbsp;&lt;span data-slate-fragment=&quot;JTVCJTdCJTIyZGF0YSUyMiUzQSU3QiU3RCUyQyUyMnR5cGUlMjIlM0ElMjJwYXJhZ3JhcGglMjIlMkMlMjJjaGlsZHJlbiUyMiUzQSU1QiU3QiUyMnRleHQlMjIlM0ElMjJsaXN0JTIwb2YlMjBzZWF0cyUyMChzZWN0aW9uX2lkJTJDJTIwcm93X2lkJTJDJTIwc2VhdF9pZCklMjB3aXRoJTIwc2VhdHMlRTIlODAlOTklMjBzdGF0dXMlMjAoaWQlMkMlMjBuYW1lKSUyMGFuZCUyMHByaWNlJTIwb3B0aW9ucyUyMCUyMiUyQyUyMnV1aS1yaWNoVGV4dEVkaXRvci1zcGFuLW1hcmslMjIlM0F0cnVlJTdEJTVEJTdEJTVE&quot; data-sider-select-id=&quot;7967127a-1ae8-40a2-94c4-d0698ecde696&quot; style=&quot;white-space: pre;&quot;&gt;list of seats, with seats &lt;/span&gt;&lt;span style=&quot;white-space: pre; background-color: initial;&quot;&gt;status &lt;/span&gt;&lt;div&gt;&lt;span style=&quot;white-space: pre; background-color: initial;&quot;&gt;and price options &lt;/span&gt;&lt;/div&gt;" style="text;html=1;align=right;verticalAlign=middle;whiteSpace=wrap;rounded=0;fontSize=6;" vertex="1" parent="1">
          <mxGeometry x="102" y="291" width="115" height="28" as="geometry" />
        </mxCell>
        <mxCell id="EfarVEtjQRPdv6SVDDEV-99" value="" style="endArrow=none;dashed=1;html=1;rounded=0;entryX=0.474;entryY=1.064;entryDx=0;entryDy=0;entryPerimeter=0;" edge="1" parent="1" source="EfarVEtjQRPdv6SVDDEV-100" target="EfarVEtjQRPdv6SVDDEV-98">
          <mxGeometry width="50" height="50" relative="1" as="geometry">
            <mxPoint x="100" y="516" as="sourcePoint" />
            <mxPoint x="99.26" y="160" as="targetPoint" />
          </mxGeometry>
        </mxCell>
        <mxCell id="EfarVEtjQRPdv6SVDDEV-98" value="" style="html=1;points=[[0,0,0,0,5],[0,1,0,0,-5],[1,0,0,0,5],[1,1,0,0,-5]];perimeter=orthogonalPerimeter;outlineConnect=0;targetShapes=umlLifeline;portConstraint=eastwest;newEdgeStyle={&quot;curved&quot;:0,&quot;rounded&quot;:0};" vertex="1" parent="1">
          <mxGeometry x="94.75" y="200" width="10" height="30" as="geometry" />
        </mxCell>
        <mxCell id="EfarVEtjQRPdv6SVDDEV-101" value="" style="endArrow=none;dashed=1;html=1;rounded=0;entryX=0.474;entryY=1.064;entryDx=0;entryDy=0;entryPerimeter=0;" edge="1" parent="1" source="EfarVEtjQRPdv6SVDDEV-114" target="EfarVEtjQRPdv6SVDDEV-100">
          <mxGeometry width="50" height="50" relative="1" as="geometry">
            <mxPoint x="100" y="516" as="sourcePoint" />
            <mxPoint x="99" y="232" as="targetPoint" />
          </mxGeometry>
        </mxCell>
        <mxCell id="EfarVEtjQRPdv6SVDDEV-100" value="" style="html=1;points=[[0,0,0,0,5],[0,1,0,0,-5],[1,0,0,0,5],[1,1,0,0,-5]];perimeter=orthogonalPerimeter;outlineConnect=0;targetShapes=umlLifeline;portConstraint=eastwest;newEdgeStyle={&quot;curved&quot;:0,&quot;rounded&quot;:0};" vertex="1" parent="1">
          <mxGeometry x="94.75" y="260" width="10" height="30" as="geometry" />
        </mxCell>
        <mxCell id="EfarVEtjQRPdv6SVDDEV-102" value="" style="endArrow=classic;html=1;rounded=0;" edge="1" parent="1">
          <mxGeometry width="50" height="50" relative="1" as="geometry">
            <mxPoint x="99" y="290" as="sourcePoint" />
            <mxPoint x="19" y="290" as="targetPoint" />
          </mxGeometry>
        </mxCell>
        <mxCell id="EfarVEtjQRPdv6SVDDEV-103" value="Display event&#39;s details and seats" style="text;html=1;align=right;verticalAlign=middle;whiteSpace=wrap;rounded=0;fontSize=6;" vertex="1" parent="1">
          <mxGeometry x="21" y="297" width="78" height="14" as="geometry" />
        </mxCell>
        <mxCell id="EfarVEtjQRPdv6SVDDEV-104" value="" style="endArrow=classic;html=1;rounded=0;" edge="1" parent="1" target="EfarVEtjQRPdv6SVDDEV-114">
          <mxGeometry width="50" height="50" relative="1" as="geometry">
            <mxPoint x="23" y="340" as="sourcePoint" />
            <mxPoint x="98" y="340" as="targetPoint" />
          </mxGeometry>
        </mxCell>
        <mxCell id="EfarVEtjQRPdv6SVDDEV-105" value="Select option &quot;Seats with lowest price&quot;" style="text;html=1;align=left;verticalAlign=middle;whiteSpace=wrap;rounded=0;fontSize=6;" vertex="1" parent="1">
          <mxGeometry x="23" y="320" width="80" height="18" as="geometry" />
        </mxCell>
        <mxCell id="EfarVEtjQRPdv6SVDDEV-107" value="" style="endArrow=classic;html=1;rounded=0;" edge="1" parent="1">
          <mxGeometry width="50" height="50" relative="1" as="geometry">
            <mxPoint x="101.00000000000003" y="339.95" as="sourcePoint" />
            <mxPoint x="211" y="339" as="targetPoint" />
            <Array as="points">
              <mxPoint x="130.9" y="339.95" />
            </Array>
          </mxGeometry>
        </mxCell>
        <mxCell id="EfarVEtjQRPdv6SVDDEV-108" value="Request seats with the lowest price" style="text;html=1;align=left;verticalAlign=middle;whiteSpace=wrap;rounded=0;fontSize=6;" vertex="1" parent="1">
          <mxGeometry x="103" y="331" width="108" height="7" as="geometry" />
        </mxCell>
        <mxCell id="EfarVEtjQRPdv6SVDDEV-109" value="" style="html=1;points=[[0,0,0,0,5],[0,1,0,0,-5],[1,0,0,0,5],[1,1,0,0,-5]];perimeter=orthogonalPerimeter;outlineConnect=0;targetShapes=umlLifeline;portConstraint=eastwest;newEdgeStyle={&quot;curved&quot;:0,&quot;rounded&quot;:0};" vertex="1" parent="1">
          <mxGeometry x="214" y="338" width="10" height="32" as="geometry" />
        </mxCell>
        <mxCell id="EfarVEtjQRPdv6SVDDEV-110" value="" style="html=1;align=left;spacingLeft=2;endArrow=block;rounded=0;edgeStyle=orthogonalEdgeStyle;curved=0;rounded=0;" edge="1" target="EfarVEtjQRPdv6SVDDEV-109" parent="1">
          <mxGeometry relative="1" as="geometry">
            <mxPoint x="219" y="318" as="sourcePoint" />
            <Array as="points">
              <mxPoint x="249" y="348" />
            </Array>
          </mxGeometry>
        </mxCell>
        <mxCell id="EfarVEtjQRPdv6SVDDEV-111" value="* Filter seats by the price" style="text;html=1;align=left;verticalAlign=middle;whiteSpace=wrap;rounded=0;fontSize=6;" vertex="1" parent="1">
          <mxGeometry x="250" y="318" width="73" height="9" as="geometry" />
        </mxCell>
        <mxCell id="EfarVEtjQRPdv6SVDDEV-112" value="" style="endArrow=classic;html=1;rounded=0;dashed=1;" edge="1" parent="1">
          <mxGeometry width="50" height="50" relative="1" as="geometry">
            <mxPoint x="208" y="370" as="sourcePoint" />
            <mxPoint x="104" y="370" as="targetPoint" />
            <Array as="points">
              <mxPoint x="127.94999999999999" y="370" />
            </Array>
          </mxGeometry>
        </mxCell>
        <mxCell id="EfarVEtjQRPdv6SVDDEV-113" value="Response with&amp;nbsp;&lt;span style=&quot;background-color: initial; white-space: pre;&quot;&gt;filtered seats&lt;/span&gt;" style="text;html=1;align=right;verticalAlign=middle;whiteSpace=wrap;rounded=0;fontSize=6;" vertex="1" parent="1">
          <mxGeometry x="100" y="371" width="115" height="9" as="geometry" />
        </mxCell>
        <mxCell id="EfarVEtjQRPdv6SVDDEV-115" value="" style="endArrow=none;dashed=1;html=1;rounded=0;entryX=0.474;entryY=1.064;entryDx=0;entryDy=0;entryPerimeter=0;" edge="1" parent="1" source="EfarVEtjQRPdv6SVDDEV-154" target="EfarVEtjQRPdv6SVDDEV-114">
          <mxGeometry width="50" height="50" relative="1" as="geometry">
            <mxPoint x="100" y="560" as="sourcePoint" />
            <mxPoint x="99" y="292" as="targetPoint" />
          </mxGeometry>
        </mxCell>
        <mxCell id="EfarVEtjQRPdv6SVDDEV-114" value="" style="html=1;points=[[0,0,0,0,5],[0,1,0,0,-5],[1,0,0,0,5],[1,1,0,0,-5]];perimeter=orthogonalPerimeter;outlineConnect=0;targetShapes=umlLifeline;portConstraint=eastwest;newEdgeStyle={&quot;curved&quot;:0,&quot;rounded&quot;:0};" vertex="1" parent="1">
          <mxGeometry x="93" y="340" width="10" height="30" as="geometry" />
        </mxCell>
        <mxCell id="EfarVEtjQRPdv6SVDDEV-116" value="* Probably is better to do sorting/filtering on ui side?" style="text;html=1;align=center;verticalAlign=middle;resizable=0;points=[];autosize=1;strokeColor=none;fillColor=none;" vertex="1" parent="1">
          <mxGeometry x="-10" y="937" width="300" height="30" as="geometry" />
        </mxCell>
        <mxCell id="EfarVEtjQRPdv6SVDDEV-118" value="" style="endArrow=classic;html=1;rounded=0;" edge="1" parent="1">
          <mxGeometry width="50" height="50" relative="1" as="geometry">
            <mxPoint x="100" y="370" as="sourcePoint" />
            <mxPoint x="20" y="370" as="targetPoint" />
          </mxGeometry>
        </mxCell>
        <mxCell id="EfarVEtjQRPdv6SVDDEV-119" value="Display seats with the lowest price" style="text;html=1;align=right;verticalAlign=middle;whiteSpace=wrap;rounded=0;fontSize=6;" vertex="1" parent="1">
          <mxGeometry x="20" y="376" width="78" height="14" as="geometry" />
        </mxCell>
        <mxCell id="EfarVEtjQRPdv6SVDDEV-121" value="" style="endArrow=classic;html=1;rounded=0;" edge="1" parent="1">
          <mxGeometry width="50" height="50" relative="1" as="geometry">
            <mxPoint x="23" y="420" as="sourcePoint" />
            <mxPoint x="93" y="420" as="targetPoint" />
          </mxGeometry>
        </mxCell>
        <mxCell id="EfarVEtjQRPdv6SVDDEV-122" value="Add seat to a cart" style="text;html=1;align=left;verticalAlign=middle;whiteSpace=wrap;rounded=0;fontSize=6;" vertex="1" parent="1">
          <mxGeometry x="21" y="410" width="60" height="8" as="geometry" />
        </mxCell>
        <mxCell id="EfarVEtjQRPdv6SVDDEV-124" value="" style="html=1;points=[[0,0,0,0,5],[0,1,0,0,-5],[1,0,0,0,5],[1,1,0,0,-5]];perimeter=orthogonalPerimeter;outlineConnect=0;targetShapes=umlLifeline;portConstraint=eastwest;newEdgeStyle={&quot;curved&quot;:0,&quot;rounded&quot;:0};" vertex="1" parent="1">
          <mxGeometry x="93" y="420" width="10" height="50" as="geometry" />
        </mxCell>
        <mxCell id="EfarVEtjQRPdv6SVDDEV-125" value="" style="html=1;align=left;spacingLeft=2;endArrow=block;rounded=0;edgeStyle=orthogonalEdgeStyle;curved=0;rounded=0;" edge="1" parent="1" target="EfarVEtjQRPdv6SVDDEV-124">
          <mxGeometry relative="1" as="geometry">
            <mxPoint x="98" y="400" as="sourcePoint" />
            <Array as="points">
              <mxPoint x="128" y="430" />
            </Array>
          </mxGeometry>
        </mxCell>
        <mxCell id="EfarVEtjQRPdv6SVDDEV-126" value="Create/Get a cart and provide card&#39;s&amp;nbsp;&lt;span data-sider-select-id=&quot;ed815ef6-0708-43d5-a852-6c6bbfb21ac4&quot; style=&quot;white-space: pre;&quot; data-slate-fragment=&quot;JTVCJTdCJTIyZGF0YSUyMiUzQSU3QiU3RCUyQyUyMnR5cGUlMjIlM0ElMjJwYXJhZ3JhcGglMjIlMkMlMjJjaGlsZHJlbiUyMiUzQSU1QiU3QiUyMnRleHQlMjIlM0ElMjJ1dWlkJTIyJTJDJTIydXVpLXJpY2hUZXh0RWRpdG9yLXNwYW4tbWFyayUyMiUzQXRydWUlN0QlNUQlN0QlNUQ=&quot;&gt;uuid&lt;/span&gt;" style="text;html=1;align=left;verticalAlign=middle;whiteSpace=wrap;rounded=0;fontSize=6;" vertex="1" parent="1">
          <mxGeometry x="129" y="400" width="82" height="20" as="geometry" />
        </mxCell>
        <mxCell id="EfarVEtjQRPdv6SVDDEV-129" value="" style="html=1;points=[[0,0,0,0,5],[0,1,0,0,-5],[1,0,0,0,5],[1,1,0,0,-5]];perimeter=orthogonalPerimeter;outlineConnect=0;targetShapes=umlLifeline;portConstraint=eastwest;newEdgeStyle={&quot;curved&quot;:0,&quot;rounded&quot;:0};fontColor=#333333;fillColor=#f5f5f5;strokeColor=#666666;" vertex="1" parent="1">
          <mxGeometry x="94.75" y="440" width="10" height="30" as="geometry" />
        </mxCell>
        <mxCell id="EfarVEtjQRPdv6SVDDEV-130" value="" style="endArrow=classic;html=1;rounded=0;" edge="1" parent="1" target="EfarVEtjQRPdv6SVDDEV-136">
          <mxGeometry width="50" height="50" relative="1" as="geometry">
            <mxPoint x="106" y="440" as="sourcePoint" />
            <mxPoint x="370" y="440" as="targetPoint" />
          </mxGeometry>
        </mxCell>
        <mxCell id="EfarVEtjQRPdv6SVDDEV-131" value="In Memory Storage" style="shape=cylinder3;whiteSpace=wrap;html=1;boundedLbl=1;backgroundOutline=1;size=15;" vertex="1" parent="1">
          <mxGeometry x="742" y="99.75" width="60" height="80" as="geometry" />
        </mxCell>
        <mxCell id="EfarVEtjQRPdv6SVDDEV-134" value="" style="endArrow=none;dashed=1;html=1;rounded=0;entryX=0.436;entryY=1.014;entryDx=0;entryDy=0;entryPerimeter=0;" edge="1" parent="1" source="EfarVEtjQRPdv6SVDDEV-203">
          <mxGeometry width="50" height="50" relative="1" as="geometry">
            <mxPoint x="772.05" y="560" as="sourcePoint" />
            <mxPoint x="771.8" y="180" as="targetPoint" />
          </mxGeometry>
        </mxCell>
        <mxCell id="EfarVEtjQRPdv6SVDDEV-135" value="Request to add seats to a cart with&amp;nbsp;&lt;span style=&quot;white-space: pre;&quot;&gt;uuid&lt;/span&gt;" style="text;html=1;align=left;verticalAlign=middle;whiteSpace=wrap;rounded=0;fontSize=6;" vertex="1" parent="1">
          <mxGeometry x="111" y="431.5" width="109" height="7" as="geometry" />
        </mxCell>
        <mxCell id="EfarVEtjQRPdv6SVDDEV-137" value="" style="endArrow=none;dashed=1;html=1;rounded=0;" edge="1" parent="1" target="EfarVEtjQRPdv6SVDDEV-136">
          <mxGeometry width="50" height="50" relative="1" as="geometry">
            <mxPoint x="370.07" y="440" as="sourcePoint" />
            <mxPoint x="370" y="560" as="targetPoint" />
          </mxGeometry>
        </mxCell>
        <mxCell id="EfarVEtjQRPdv6SVDDEV-136" value="" style="html=1;points=[[0,0,0,0,5],[0,1,0,0,-5],[1,0,0,0,5],[1,1,0,0,-5]];perimeter=orthogonalPerimeter;outlineConnect=0;targetShapes=umlLifeline;portConstraint=eastwest;newEdgeStyle={&quot;curved&quot;:0,&quot;rounded&quot;:0};" vertex="1" parent="1">
          <mxGeometry x="365" y="440" width="10" height="30" as="geometry" />
        </mxCell>
        <mxCell id="EfarVEtjQRPdv6SVDDEV-138" value="" style="endArrow=classic;html=1;rounded=0;" edge="1" parent="1" target="EfarVEtjQRPdv6SVDDEV-139">
          <mxGeometry width="50" height="50" relative="1" as="geometry">
            <mxPoint x="370" y="440" as="sourcePoint" />
            <mxPoint x="620" y="440" as="targetPoint" />
          </mxGeometry>
        </mxCell>
        <mxCell id="EfarVEtjQRPdv6SVDDEV-140" value="" style="endArrow=none;dashed=1;html=1;rounded=0;entryX=0.436;entryY=1.014;entryDx=0;entryDy=0;entryPerimeter=0;" edge="1" parent="1" source="EfarVEtjQRPdv6SVDDEV-200" target="EfarVEtjQRPdv6SVDDEV-139">
          <mxGeometry width="50" height="50" relative="1" as="geometry">
            <mxPoint x="770" y="760" as="sourcePoint" />
            <mxPoint x="771.8" y="180" as="targetPoint" />
          </mxGeometry>
        </mxCell>
        <mxCell id="EfarVEtjQRPdv6SVDDEV-139" value="" style="html=1;points=[[0,0,0,0,5],[0,1,0,0,-5],[1,0,0,0,5],[1,1,0,0,-5]];perimeter=orthogonalPerimeter;outlineConnect=0;targetShapes=umlLifeline;portConstraint=eastwest;newEdgeStyle={&quot;curved&quot;:0,&quot;rounded&quot;:0};" vertex="1" parent="1">
          <mxGeometry x="767" y="439" width="10" height="30" as="geometry" />
        </mxCell>
        <mxCell id="EfarVEtjQRPdv6SVDDEV-141" value="** Add/Update a cart In Memory storage" style="text;html=1;align=left;verticalAlign=middle;whiteSpace=wrap;rounded=0;fontSize=6;" vertex="1" parent="1">
          <mxGeometry x="370" y="430" width="150" height="9" as="geometry" />
        </mxCell>
        <mxCell id="EfarVEtjQRPdv6SVDDEV-142" value="" style="endArrow=classic;html=1;rounded=0;dashed=1;" edge="1" parent="1" target="EfarVEtjQRPdv6SVDDEV-136">
          <mxGeometry width="50" height="50" relative="1" as="geometry">
            <mxPoint x="770" y="469" as="sourcePoint" />
            <mxPoint x="390" y="470" as="targetPoint" />
          </mxGeometry>
        </mxCell>
        <mxCell id="EfarVEtjQRPdv6SVDDEV-145" value="Cart is added/updated" style="text;html=1;align=left;verticalAlign=middle;whiteSpace=wrap;rounded=0;fontSize=6;" vertex="1" parent="1">
          <mxGeometry x="702" y="470" width="65" height="9" as="geometry" />
        </mxCell>
        <mxCell id="EfarVEtjQRPdv6SVDDEV-146" value="" style="endArrow=classic;html=1;rounded=0;dashed=1;" edge="1" parent="1">
          <mxGeometry width="50" height="50" relative="1" as="geometry">
            <mxPoint x="364" y="541" as="sourcePoint" />
            <mxPoint x="104" y="541" as="targetPoint" />
          </mxGeometry>
        </mxCell>
        <mxCell id="EfarVEtjQRPdv6SVDDEV-147" value="&lt;span data-sider-select-id=&quot;366d1412-2e14-4465-b6a3-0a1eabd23ca8&quot; data-slate-fragment=&quot;JTVCJTdCJTIyZGF0YSUyMiUzQSU3QiU3RCUyQyUyMnR5cGUlMjIlM0ElMjJwYXJhZ3JhcGglMjIlMkMlMjJjaGlsZHJlbiUyMiUzQSU1QiU3QiUyMnRleHQlMjIlM0ElMjJSZXR1cm5zJTIwYSUyMGNhcnQlMjBzdGF0ZSUyMCh3aXRoJTIwdG90YWwlMjBhbW91bnQpJTIyJTJDJTIydXVpLXJpY2hUZXh0RWRpdG9yLXNwYW4tbWFyayUyMiUzQXRydWUlN0QlNUQlN0QlNUQ=&quot; style=&quot;white-space: pre; font-size: 6px;&quot;&gt;Response with the cart state with total amount&lt;/span&gt;" style="text;whiteSpace=wrap;html=1;fontSize=6;" vertex="1" parent="1">
          <mxGeometry x="243" y="467" width="122" height="10" as="geometry" />
        </mxCell>
        <mxCell id="EfarVEtjQRPdv6SVDDEV-150" value="" style="endArrow=classic;html=1;rounded=0;" edge="1" parent="1">
          <mxGeometry width="50" height="50" relative="1" as="geometry">
            <mxPoint x="92" y="470" as="sourcePoint" />
            <mxPoint x="20" y="470" as="targetPoint" />
          </mxGeometry>
        </mxCell>
        <mxCell id="EfarVEtjQRPdv6SVDDEV-151" value="Display the cart status with total amount" style="text;html=1;align=right;verticalAlign=middle;whiteSpace=wrap;rounded=0;fontSize=6;" vertex="1" parent="1">
          <mxGeometry x="32" y="472" width="62" height="14" as="geometry" />
        </mxCell>
        <mxCell id="EfarVEtjQRPdv6SVDDEV-152" value="** Should think about intermediate status, since on this stage no Booked status&amp;nbsp;&lt;div data-sider-select-id=&quot;7aa752a9-3e54-4223-88b4-e2910033e4d8&quot;&gt;on a seat (concurrency issue)?&lt;/div&gt;" style="text;html=1;align=left;verticalAlign=middle;resizable=0;points=[];autosize=1;strokeColor=none;fillColor=none;" vertex="1" parent="1">
          <mxGeometry x="-0.5" y="967" width="450" height="40" as="geometry" />
        </mxCell>
        <mxCell id="EfarVEtjQRPdv6SVDDEV-153" value="" style="endArrow=classic;html=1;rounded=0;" edge="1" parent="1">
          <mxGeometry width="50" height="50" relative="1" as="geometry">
            <mxPoint x="23" y="511" as="sourcePoint" />
            <mxPoint x="93" y="511" as="targetPoint" />
          </mxGeometry>
        </mxCell>
        <mxCell id="EfarVEtjQRPdv6SVDDEV-155" value="" style="endArrow=none;dashed=1;html=1;rounded=0;entryX=0.474;entryY=1.064;entryDx=0;entryDy=0;entryPerimeter=0;" edge="1" parent="1" source="EfarVEtjQRPdv6SVDDEV-176" target="EfarVEtjQRPdv6SVDDEV-154">
          <mxGeometry width="50" height="50" relative="1" as="geometry">
            <mxPoint x="100" y="640" as="sourcePoint" />
            <mxPoint x="98" y="372" as="targetPoint" />
          </mxGeometry>
        </mxCell>
        <mxCell id="EfarVEtjQRPdv6SVDDEV-154" value="" style="html=1;points=[[0,0,0,0,5],[0,1,0,0,-5],[1,0,0,0,5],[1,1,0,0,-5]];perimeter=orthogonalPerimeter;outlineConnect=0;targetShapes=umlLifeline;portConstraint=eastwest;newEdgeStyle={&quot;curved&quot;:0,&quot;rounded&quot;:0};" vertex="1" parent="1">
          <mxGeometry x="94" y="511" width="10" height="30" as="geometry" />
        </mxCell>
        <mxCell id="EfarVEtjQRPdv6SVDDEV-157" value="Open the cart" style="text;html=1;align=left;verticalAlign=middle;whiteSpace=wrap;rounded=0;fontSize=6;" vertex="1" parent="1">
          <mxGeometry x="22" y="500" width="60" height="8" as="geometry" />
        </mxCell>
        <mxCell id="EfarVEtjQRPdv6SVDDEV-158" value="" style="endArrow=classic;html=1;rounded=0;" edge="1" parent="1" target="EfarVEtjQRPdv6SVDDEV-162">
          <mxGeometry width="50" height="50" relative="1" as="geometry">
            <mxPoint x="104.00000000000003" y="510.95" as="sourcePoint" />
            <mxPoint x="214" y="510" as="targetPoint" />
            <Array as="points">
              <mxPoint x="133.9" y="510.95" />
            </Array>
          </mxGeometry>
        </mxCell>
        <mxCell id="EfarVEtjQRPdv6SVDDEV-159" value="Request cart" style="text;html=1;align=left;verticalAlign=middle;whiteSpace=wrap;rounded=0;fontSize=6;" vertex="1" parent="1">
          <mxGeometry x="106" y="502" width="44" height="7" as="geometry" />
        </mxCell>
        <mxCell id="EfarVEtjQRPdv6SVDDEV-162" value="" style="html=1;points=[[0,0,0,0,5],[0,1,0,0,-5],[1,0,0,0,5],[1,1,0,0,-5]];perimeter=orthogonalPerimeter;outlineConnect=0;targetShapes=umlLifeline;portConstraint=eastwest;newEdgeStyle={&quot;curved&quot;:0,&quot;rounded&quot;:0};" vertex="1" parent="1">
          <mxGeometry x="365" y="510" width="10" height="30" as="geometry" />
        </mxCell>
        <mxCell id="EfarVEtjQRPdv6SVDDEV-165" value="" style="endArrow=classic;html=1;rounded=0;" edge="1" parent="1" target="EfarVEtjQRPdv6SVDDEV-200">
          <mxGeometry width="50" height="50" relative="1" as="geometry">
            <mxPoint x="375" y="511" as="sourcePoint" />
            <mxPoint x="650" y="510" as="targetPoint" />
          </mxGeometry>
        </mxCell>
        <mxCell id="EfarVEtjQRPdv6SVDDEV-166" value="Query to get the cart" style="text;html=1;align=left;verticalAlign=middle;whiteSpace=wrap;rounded=0;fontSize=6;" vertex="1" parent="1">
          <mxGeometry x="376" y="501" width="73" height="9" as="geometry" />
        </mxCell>
        <mxCell id="EfarVEtjQRPdv6SVDDEV-167" value="" style="endArrow=classic;html=1;rounded=0;dashed=1;exitX=0.3;exitY=1;exitDx=0;exitDy=0;exitPerimeter=0;" edge="1" parent="1" source="EfarVEtjQRPdv6SVDDEV-200">
          <mxGeometry width="50" height="50" relative="1" as="geometry">
            <mxPoint x="650" y="540" as="sourcePoint" />
            <mxPoint x="375" y="540" as="targetPoint" />
          </mxGeometry>
        </mxCell>
        <mxCell id="EfarVEtjQRPdv6SVDDEV-168" value="Return the cart with seats details" style="text;html=1;align=left;verticalAlign=middle;whiteSpace=wrap;rounded=0;fontSize=6;" vertex="1" parent="1">
          <mxGeometry x="676" y="541" width="91" height="10" as="geometry" />
        </mxCell>
        <mxCell id="EfarVEtjQRPdv6SVDDEV-169" value="Response with the cart with seats details" style="text;html=1;align=right;verticalAlign=middle;whiteSpace=wrap;rounded=0;fontSize=6;" vertex="1" parent="1">
          <mxGeometry x="250" y="542.5" width="113" height="9" as="geometry" />
        </mxCell>
        <mxCell id="EfarVEtjQRPdv6SVDDEV-170" value="" style="endArrow=classic;html=1;rounded=0;" edge="1" parent="1">
          <mxGeometry width="50" height="50" relative="1" as="geometry">
            <mxPoint x="93" y="541" as="sourcePoint" />
            <mxPoint x="21" y="541" as="targetPoint" />
          </mxGeometry>
        </mxCell>
        <mxCell id="EfarVEtjQRPdv6SVDDEV-171" value="Display the cart with seats details" style="text;html=1;align=right;verticalAlign=middle;whiteSpace=wrap;rounded=0;fontSize=6;" vertex="1" parent="1">
          <mxGeometry x="33" y="543" width="62" height="14" as="geometry" />
        </mxCell>
        <mxCell id="EfarVEtjQRPdv6SVDDEV-172" value="Payment Service" style="html=1;whiteSpace=wrap;" vertex="1" parent="1">
          <mxGeometry x="470" y="120" width="110" height="40" as="geometry" />
        </mxCell>
        <mxCell id="EfarVEtjQRPdv6SVDDEV-174" value="loop" style="shape=umlFrame;whiteSpace=wrap;html=1;pointerEvents=0;width=42;height=15;fontSize=8;strokeColor=#808080;fontColor=#999999;" vertex="1" parent="1">
          <mxGeometry x="-30" y="390" width="830" height="100" as="geometry" />
        </mxCell>
        <mxCell id="EfarVEtjQRPdv6SVDDEV-175" value="" style="endArrow=classic;html=1;rounded=0;" edge="1" parent="1">
          <mxGeometry width="50" height="50" relative="1" as="geometry">
            <mxPoint x="22" y="580" as="sourcePoint" />
            <mxPoint x="92" y="580" as="targetPoint" />
          </mxGeometry>
        </mxCell>
        <mxCell id="EfarVEtjQRPdv6SVDDEV-178" value="" style="endArrow=none;dashed=1;html=1;rounded=0;entryX=0.474;entryY=1.064;entryDx=0;entryDy=0;entryPerimeter=0;" edge="1" parent="1" target="EfarVEtjQRPdv6SVDDEV-176">
          <mxGeometry width="50" height="50" relative="1" as="geometry">
            <mxPoint x="100" y="760" as="sourcePoint" />
            <mxPoint x="99" y="543" as="targetPoint" />
          </mxGeometry>
        </mxCell>
        <mxCell id="EfarVEtjQRPdv6SVDDEV-176" value="" style="html=1;points=[[0,0,0,0,5],[0,1,0,0,-5],[1,0,0,0,5],[1,1,0,0,-5]];perimeter=orthogonalPerimeter;outlineConnect=0;targetShapes=umlLifeline;portConstraint=eastwest;newEdgeStyle={&quot;curved&quot;:0,&quot;rounded&quot;:0};" vertex="1" parent="1">
          <mxGeometry x="94" y="579" width="10" height="30" as="geometry" />
        </mxCell>
        <mxCell id="EfarVEtjQRPdv6SVDDEV-179" value="Confirm order/booking" style="text;html=1;align=left;verticalAlign=middle;whiteSpace=wrap;rounded=0;fontSize=6;" vertex="1" parent="1">
          <mxGeometry x="22" y="570" width="68" height="8" as="geometry" />
        </mxCell>
        <mxCell id="EfarVEtjQRPdv6SVDDEV-180" value="" style="endArrow=classic;html=1;rounded=0;" edge="1" parent="1">
          <mxGeometry width="50" height="50" relative="1" as="geometry">
            <mxPoint x="106.00000000000003" y="579" as="sourcePoint" />
            <mxPoint x="367" y="579.05" as="targetPoint" />
            <Array as="points">
              <mxPoint x="135.9" y="579" />
            </Array>
          </mxGeometry>
        </mxCell>
        <mxCell id="EfarVEtjQRPdv6SVDDEV-181" value="" style="html=1;points=[[0,0,0,0,5],[0,1,0,0,-5],[1,0,0,0,5],[1,1,0,0,-5]];perimeter=orthogonalPerimeter;outlineConnect=0;targetShapes=umlLifeline;portConstraint=eastwest;newEdgeStyle={&quot;curved&quot;:0,&quot;rounded&quot;:0};" vertex="1" parent="1">
          <mxGeometry x="367" y="579" width="10" height="30" as="geometry" />
        </mxCell>
        <mxCell id="EfarVEtjQRPdv6SVDDEV-182" value="Request to book seats" style="text;html=1;align=left;verticalAlign=middle;whiteSpace=wrap;rounded=0;fontSize=6;" vertex="1" parent="1">
          <mxGeometry x="107" y="570" width="108" height="7" as="geometry" />
        </mxCell>
        <mxCell id="EfarVEtjQRPdv6SVDDEV-183" value="" style="endArrow=classic;html=1;rounded=0;" edge="1" parent="1" target="EfarVEtjQRPdv6SVDDEV-186">
          <mxGeometry width="50" height="50" relative="1" as="geometry">
            <mxPoint x="380" y="580" as="sourcePoint" />
            <mxPoint x="510" y="580" as="targetPoint" />
          </mxGeometry>
        </mxCell>
        <mxCell id="EfarVEtjQRPdv6SVDDEV-184" value="Query to update seats status to &#39;Booked&#39;" style="text;html=1;align=left;verticalAlign=middle;whiteSpace=wrap;rounded=0;fontSize=6;" vertex="1" parent="1">
          <mxGeometry x="377" y="571" width="123" height="7" as="geometry" />
        </mxCell>
        <mxCell id="EfarVEtjQRPdv6SVDDEV-185" value="" style="endArrow=classic;html=1;rounded=0;dashed=1;" edge="1" parent="1">
          <mxGeometry width="50" height="50" relative="1" as="geometry">
            <mxPoint x="364.75" y="609" as="sourcePoint" />
            <mxPoint x="104.75" y="609" as="targetPoint" />
          </mxGeometry>
        </mxCell>
        <mxCell id="EfarVEtjQRPdv6SVDDEV-187" value="Response with the payment id and payment details" style="text;html=1;align=right;verticalAlign=middle;whiteSpace=wrap;rounded=0;fontSize=6;" vertex="1" parent="1">
          <mxGeometry x="260" y="612" width="105" height="9" as="geometry" />
        </mxCell>
        <mxCell id="EfarVEtjQRPdv6SVDDEV-188" value="" style="endArrow=classic;html=1;rounded=0;" edge="1" parent="1">
          <mxGeometry width="50" height="50" relative="1" as="geometry">
            <mxPoint x="93" y="608" as="sourcePoint" />
            <mxPoint x="21" y="608" as="targetPoint" />
          </mxGeometry>
        </mxCell>
        <mxCell id="EfarVEtjQRPdv6SVDDEV-189" value="Display the payment details" style="text;html=1;align=right;verticalAlign=middle;whiteSpace=wrap;rounded=0;fontSize=6;" vertex="1" parent="1">
          <mxGeometry x="33" y="610" width="62" height="14" as="geometry" />
        </mxCell>
        <mxCell id="EfarVEtjQRPdv6SVDDEV-190" value="" style="endArrow=none;dashed=1;html=1;rounded=0;entryX=0.436;entryY=1.014;entryDx=0;entryDy=0;entryPerimeter=0;" edge="1" parent="1" target="EfarVEtjQRPdv6SVDDEV-186">
          <mxGeometry width="50" height="50" relative="1" as="geometry">
            <mxPoint x="653" y="760" as="sourcePoint" />
            <mxPoint x="651.75" y="180" as="targetPoint" />
          </mxGeometry>
        </mxCell>
        <mxCell id="EfarVEtjQRPdv6SVDDEV-186" value="" style="html=1;points=[[0,0,0,0,5],[0,1,0,0,-5],[1,0,0,0,5],[1,1,0,0,-5]];perimeter=orthogonalPerimeter;outlineConnect=0;targetShapes=umlLifeline;portConstraint=eastwest;newEdgeStyle={&quot;curved&quot;:0,&quot;rounded&quot;:0};" vertex="1" parent="1">
          <mxGeometry x="649" y="579" width="10" height="30" as="geometry" />
        </mxCell>
        <mxCell id="EfarVEtjQRPdv6SVDDEV-192" value="" style="endArrow=classic;html=1;rounded=0;exitX=1;exitY=0;exitDx=0;exitDy=0;dashed=1;" edge="1" parent="1" source="EfarVEtjQRPdv6SVDDEV-193" target="EfarVEtjQRPdv6SVDDEV-181">
          <mxGeometry width="50" height="50" relative="1" as="geometry">
            <mxPoint x="510" y="610" as="sourcePoint" />
            <mxPoint x="517" y="590" as="targetPoint" />
          </mxGeometry>
        </mxCell>
        <mxCell id="EfarVEtjQRPdv6SVDDEV-193" value="Return success&amp;nbsp;" style="text;html=1;align=left;verticalAlign=middle;whiteSpace=wrap;rounded=0;fontSize=6;" vertex="1" parent="1">
          <mxGeometry x="595" y="610" width="54" height="10" as="geometry" />
        </mxCell>
        <mxCell id="EfarVEtjQRPdv6SVDDEV-194" value="Email Provider" style="html=1;whiteSpace=wrap;fillColor=#dae8fc;strokeColor=#6c8ebf;" vertex="1" parent="1">
          <mxGeometry x="1162" y="120" width="110" height="40" as="geometry" />
        </mxCell>
        <mxCell id="EfarVEtjQRPdv6SVDDEV-196" value="Confirm payment" style="text;html=1;align=left;verticalAlign=middle;whiteSpace=wrap;rounded=0;fontSize=6;" vertex="1" parent="1">
          <mxGeometry x="23" y="640" width="68" height="8" as="geometry" />
        </mxCell>
        <mxCell id="EfarVEtjQRPdv6SVDDEV-204" value="" style="endArrow=none;dashed=1;html=1;rounded=0;entryX=0.436;entryY=1.014;entryDx=0;entryDy=0;entryPerimeter=0;" edge="1" parent="1" source="EfarVEtjQRPdv6SVDDEV-91" target="EfarVEtjQRPdv6SVDDEV-203">
          <mxGeometry width="50" height="50" relative="1" as="geometry">
            <mxPoint x="772" y="439" as="sourcePoint" />
            <mxPoint x="771.8" y="180" as="targetPoint" />
          </mxGeometry>
        </mxCell>
        <mxCell id="EfarVEtjQRPdv6SVDDEV-203" value="" style="html=1;points=[[0,0,0,0,5],[0,1,0,0,-5],[1,0,0,0,5],[1,1,0,0,-5]];perimeter=orthogonalPerimeter;outlineConnect=0;targetShapes=umlLifeline;portConstraint=eastwest;newEdgeStyle={&quot;curved&quot;:0,&quot;rounded&quot;:0};" vertex="1" parent="1">
          <mxGeometry x="769" y="220" width="10" height="9" as="geometry" />
        </mxCell>
        <mxCell id="EfarVEtjQRPdv6SVDDEV-206" value="Add queried events to In Memory Storage" style="text;html=1;align=left;verticalAlign=middle;whiteSpace=wrap;rounded=0;fontSize=6;" vertex="1" parent="1">
          <mxGeometry x="226" y="218" width="130" height="11" as="geometry" />
        </mxCell>
        <mxCell id="EfarVEtjQRPdv6SVDDEV-207" value="Events are added to In Memory Storage" style="text;html=1;align=left;verticalAlign=middle;whiteSpace=wrap;rounded=0;fontSize=6;" vertex="1" parent="1">
          <mxGeometry x="657" y="230" width="117" height="9" as="geometry" />
        </mxCell>
        <mxCell id="EfarVEtjQRPdv6SVDDEV-208" value="" style="html=1;points=[[0,0,0,0,5],[0,1,0,0,-5],[1,0,0,0,5],[1,1,0,0,-5]];perimeter=orthogonalPerimeter;outlineConnect=0;targetShapes=umlLifeline;portConstraint=eastwest;newEdgeStyle={&quot;curved&quot;:0,&quot;rounded&quot;:0};fillColor=#f5f5f5;fontColor=#333333;strokeColor=#666666;" vertex="1" parent="1">
          <mxGeometry x="214" y="211" width="10" height="20" as="geometry" />
        </mxCell>
        <mxCell id="EfarVEtjQRPdv6SVDDEV-211" value="" style="endArrow=classic;html=1;rounded=0;" edge="1" parent="1">
          <mxGeometry width="50" height="50" relative="1" as="geometry">
            <mxPoint x="226" y="219.75" as="sourcePoint" />
            <mxPoint x="766" y="220.25" as="targetPoint" />
          </mxGeometry>
        </mxCell>
        <mxCell id="EfarVEtjQRPdv6SVDDEV-213" value="" style="endArrow=none;dashed=1;html=1;rounded=0;entryX=0.436;entryY=1.014;entryDx=0;entryDy=0;entryPerimeter=0;" edge="1" parent="1">
          <mxGeometry width="50" height="50" relative="1" as="geometry">
            <mxPoint x="520" y="760" as="sourcePoint" />
            <mxPoint x="520" y="159" as="targetPoint" />
          </mxGeometry>
        </mxCell>
        <mxCell id="EfarVEtjQRPdv6SVDDEV-214" value="" style="endArrow=classic;html=1;rounded=0;" edge="1" parent="1">
          <mxGeometry width="50" height="50" relative="1" as="geometry">
            <mxPoint x="20" y="650" as="sourcePoint" />
            <mxPoint x="96.5" y="649.81" as="targetPoint" />
            <Array as="points">
              <mxPoint x="47.400000000000006" y="649.81" />
            </Array>
          </mxGeometry>
        </mxCell>
        <mxCell id="EfarVEtjQRPdv6SVDDEV-216" value="" style="html=1;points=[[0,0,0,0,5],[0,1,0,0,-5],[1,0,0,0,5],[1,1,0,0,-5]];perimeter=orthogonalPerimeter;outlineConnect=0;targetShapes=umlLifeline;portConstraint=eastwest;newEdgeStyle={&quot;curved&quot;:0,&quot;rounded&quot;:0};" vertex="1" parent="1">
          <mxGeometry x="520" y="650" width="10" height="40" as="geometry" />
        </mxCell>
        <mxCell id="EfarVEtjQRPdv6SVDDEV-217" value="" style="endArrow=classic;html=1;rounded=0;" edge="1" parent="1" source="EfarVEtjQRPdv6SVDDEV-216">
          <mxGeometry width="50" height="50" relative="1" as="geometry">
            <mxPoint x="570" y="670" as="sourcePoint" />
            <mxPoint x="650" y="650" as="targetPoint" />
          </mxGeometry>
        </mxCell>
        <mxCell id="EfarVEtjQRPdv6SVDDEV-218" value="" style="html=1;points=[[0,0,0,0,5],[0,1,0,0,-5],[1,0,0,0,5],[1,1,0,0,-5]];perimeter=orthogonalPerimeter;outlineConnect=0;targetShapes=umlLifeline;portConstraint=eastwest;newEdgeStyle={&quot;curved&quot;:0,&quot;rounded&quot;:0};" vertex="1" parent="1">
          <mxGeometry x="649" y="650" width="10" height="20" as="geometry" />
        </mxCell>
        <mxCell id="EfarVEtjQRPdv6SVDDEV-219" value="Query to update payment status and seats status to &#39;Sold&#39;" style="text;html=1;align=left;verticalAlign=middle;whiteSpace=wrap;rounded=0;fontSize=6;" vertex="1" parent="1">
          <mxGeometry x="520" y="639" width="120" height="8" as="geometry" />
        </mxCell>
        <mxCell id="EfarVEtjQRPdv6SVDDEV-220" value="Return success&amp;nbsp;" style="text;html=1;align=left;verticalAlign=middle;whiteSpace=wrap;rounded=0;fontSize=6;" vertex="1" parent="1">
          <mxGeometry x="603" y="669" width="54" height="10" as="geometry" />
        </mxCell>
        <mxCell id="EfarVEtjQRPdv6SVDDEV-221" value="" style="html=1;points=[[0,0,0,0,5],[0,1,0,0,-5],[1,0,0,0,5],[1,1,0,0,-5]];perimeter=orthogonalPerimeter;outlineConnect=0;targetShapes=umlLifeline;portConstraint=eastwest;newEdgeStyle={&quot;curved&quot;:0,&quot;rounded&quot;:0};" vertex="1" parent="1">
          <mxGeometry x="97" y="650" width="10" height="20" as="geometry" />
        </mxCell>
        <mxCell id="EfarVEtjQRPdv6SVDDEV-222" value="" style="endArrow=classic;html=1;rounded=0;" edge="1" parent="1" target="EfarVEtjQRPdv6SVDDEV-216">
          <mxGeometry width="50" height="50" relative="1" as="geometry">
            <mxPoint x="107" y="650.19" as="sourcePoint" />
            <mxPoint x="183.5" y="650" as="targetPoint" />
            <Array as="points">
              <mxPoint x="134.4" y="650" />
            </Array>
          </mxGeometry>
        </mxCell>
        <mxCell id="EfarVEtjQRPdv6SVDDEV-223" value="Request to update payment status and seats status to &#39;Sold&#39;" style="text;html=1;align=left;verticalAlign=middle;whiteSpace=wrap;rounded=0;fontSize=6;" vertex="1" parent="1">
          <mxGeometry x="107" y="640" width="183" height="8" as="geometry" />
        </mxCell>
        <mxCell id="EfarVEtjQRPdv6SVDDEV-224" value="" style="endArrow=classic;html=1;rounded=0;dashed=1;" edge="1" parent="1" target="EfarVEtjQRPdv6SVDDEV-235">
          <mxGeometry width="50" height="50" relative="1" as="geometry">
            <mxPoint x="649" y="669" as="sourcePoint" />
            <mxPoint x="540" y="670" as="targetPoint" />
          </mxGeometry>
        </mxCell>
        <mxCell id="EfarVEtjQRPdv6SVDDEV-225" value="" style="endArrow=classic;html=1;rounded=0;dashed=1;" edge="1" parent="1">
          <mxGeometry width="50" height="50" relative="1" as="geometry">
            <mxPoint x="520" y="670" as="sourcePoint" />
            <mxPoint x="107.5" y="670" as="targetPoint" />
          </mxGeometry>
        </mxCell>
        <mxCell id="EfarVEtjQRPdv6SVDDEV-226" value="Response with successful payment completion&amp;nbsp;" style="text;html=1;align=right;verticalAlign=middle;whiteSpace=wrap;rounded=0;fontSize=6;" vertex="1" parent="1">
          <mxGeometry x="390" y="671" width="130" height="9" as="geometry" />
        </mxCell>
        <mxCell id="EfarVEtjQRPdv6SVDDEV-227" value="" style="endArrow=classic;html=1;rounded=0;" edge="1" parent="1">
          <mxGeometry width="50" height="50" relative="1" as="geometry">
            <mxPoint x="94" y="669.72" as="sourcePoint" />
            <mxPoint x="22" y="669.72" as="targetPoint" />
          </mxGeometry>
        </mxCell>
        <mxCell id="EfarVEtjQRPdv6SVDDEV-228" value="Payment completed" style="text;html=1;align=right;verticalAlign=middle;whiteSpace=wrap;rounded=0;fontSize=6;" vertex="1" parent="1">
          <mxGeometry x="35" y="670" width="62" height="14" as="geometry" />
        </mxCell>
        <mxCell id="EfarVEtjQRPdv6SVDDEV-229" value="Message Queue" style="html=1;whiteSpace=wrap;" vertex="1" parent="1">
          <mxGeometry x="842" y="120" width="110" height="40" as="geometry" />
        </mxCell>
        <mxCell id="EfarVEtjQRPdv6SVDDEV-230" value="Notification Handler" style="html=1;whiteSpace=wrap;" vertex="1" parent="1">
          <mxGeometry x="1002" y="120" width="110" height="40" as="geometry" />
        </mxCell>
        <mxCell id="EfarVEtjQRPdv6SVDDEV-231" value="" style="endArrow=none;dashed=1;html=1;rounded=0;entryX=0.436;entryY=1.014;entryDx=0;entryDy=0;entryPerimeter=0;" edge="1" parent="1">
          <mxGeometry width="50" height="50" relative="1" as="geometry">
            <mxPoint x="892" y="760" as="sourcePoint" />
            <mxPoint x="892" y="159" as="targetPoint" />
          </mxGeometry>
        </mxCell>
        <mxCell id="EfarVEtjQRPdv6SVDDEV-232" value="" style="endArrow=none;dashed=1;html=1;rounded=0;entryX=0.436;entryY=1.014;entryDx=0;entryDy=0;entryPerimeter=0;" edge="1" parent="1">
          <mxGeometry width="50" height="50" relative="1" as="geometry">
            <mxPoint x="1057" y="760" as="sourcePoint" />
            <mxPoint x="1056.58" y="160" as="targetPoint" />
          </mxGeometry>
        </mxCell>
        <mxCell id="EfarVEtjQRPdv6SVDDEV-233" value="" style="endArrow=none;dashed=1;html=1;rounded=0;entryX=0.436;entryY=1.014;entryDx=0;entryDy=0;entryPerimeter=0;" edge="1" parent="1">
          <mxGeometry width="50" height="50" relative="1" as="geometry">
            <mxPoint x="1217" y="760" as="sourcePoint" />
            <mxPoint x="1216.58" y="159" as="targetPoint" />
          </mxGeometry>
        </mxCell>
        <mxCell id="EfarVEtjQRPdv6SVDDEV-234" value="" style="endArrow=classic;html=1;rounded=0;dashed=1;" edge="1" parent="1" target="EfarVEtjQRPdv6SVDDEV-129">
          <mxGeometry width="50" height="50" relative="1" as="geometry">
            <mxPoint x="360" y="469" as="sourcePoint" />
            <mxPoint x="220" y="469" as="targetPoint" />
          </mxGeometry>
        </mxCell>
        <mxCell id="EfarVEtjQRPdv6SVDDEV-235" value="" style="html=1;points=[[0,0,0,0,5],[0,1,0,0,-5],[1,0,0,0,5],[1,1,0,0,-5]];perimeter=orthogonalPerimeter;outlineConnect=0;targetShapes=umlLifeline;portConstraint=eastwest;newEdgeStyle={&quot;curved&quot;:0,&quot;rounded&quot;:0};fillColor=#f5f5f5;fontColor=#333333;strokeColor=#666666;" vertex="1" parent="1">
          <mxGeometry x="522" y="670" width="10" height="20" as="geometry" />
        </mxCell>
        <mxCell id="EfarVEtjQRPdv6SVDDEV-237" value="" style="endArrow=classic;html=1;rounded=0;" edge="1" parent="1" target="EfarVEtjQRPdv6SVDDEV-239">
          <mxGeometry width="50" height="50" relative="1" as="geometry">
            <mxPoint x="532" y="682" as="sourcePoint" />
            <mxPoint x="890" y="682" as="targetPoint" />
          </mxGeometry>
        </mxCell>
        <mxCell id="EfarVEtjQRPdv6SVDDEV-238" value="Payment completed Notification Request" style="text;html=1;align=left;verticalAlign=middle;whiteSpace=wrap;rounded=0;fontSize=6;" vertex="1" parent="1">
          <mxGeometry x="532" y="690" width="120" height="8" as="geometry" />
        </mxCell>
        <mxCell id="EfarVEtjQRPdv6SVDDEV-239" value="" style="html=1;points=[[0,0,0,0,5],[0,1,0,0,-5],[1,0,0,0,5],[1,1,0,0,-5]];perimeter=orthogonalPerimeter;outlineConnect=0;targetShapes=umlLifeline;portConstraint=eastwest;newEdgeStyle={&quot;curved&quot;:0,&quot;rounded&quot;:0};" vertex="1" parent="1">
          <mxGeometry x="887" y="679" width="10" height="20" as="geometry" />
        </mxCell>
        <mxCell id="EfarVEtjQRPdv6SVDDEV-242" value="" style="endArrow=classic;html=1;rounded=0;" edge="1" parent="1">
          <mxGeometry width="50" height="50" relative="1" as="geometry">
            <mxPoint x="898" y="680" as="sourcePoint" />
            <mxPoint x="1050" y="680" as="targetPoint" />
          </mxGeometry>
        </mxCell>
        <mxCell id="EfarVEtjQRPdv6SVDDEV-243" value="" style="html=1;points=[[0,0,0,0,5],[0,1,0,0,-5],[1,0,0,0,5],[1,1,0,0,-5]];perimeter=orthogonalPerimeter;outlineConnect=0;targetShapes=umlLifeline;portConstraint=eastwest;newEdgeStyle={&quot;curved&quot;:0,&quot;rounded&quot;:0};" vertex="1" parent="1">
          <mxGeometry x="1052" y="680" width="10" height="20" as="geometry" />
        </mxCell>
        <mxCell id="EfarVEtjQRPdv6SVDDEV-244" value="Payment completed Notification Request" style="text;html=1;align=left;verticalAlign=middle;whiteSpace=wrap;rounded=0;fontSize=6;" vertex="1" parent="1">
          <mxGeometry x="897" y="669" width="120" height="8" as="geometry" />
        </mxCell>
        <mxCell id="EfarVEtjQRPdv6SVDDEV-245" value="" style="html=1;points=[[0,0,0,0,5],[0,1,0,0,-5],[1,0,0,0,5],[1,1,0,0,-5]];perimeter=orthogonalPerimeter;outlineConnect=0;targetShapes=umlLifeline;portConstraint=eastwest;newEdgeStyle={&quot;curved&quot;:0,&quot;rounded&quot;:0};" vertex="1" parent="1">
          <mxGeometry x="1212" y="680" width="10" height="30" as="geometry" />
        </mxCell>
        <mxCell id="EfarVEtjQRPdv6SVDDEV-246" value="" style="endArrow=classic;html=1;rounded=0;" edge="1" parent="1">
          <mxGeometry width="50" height="50" relative="1" as="geometry">
            <mxPoint x="1062" y="680" as="sourcePoint" />
            <mxPoint x="1210" y="680" as="targetPoint" />
          </mxGeometry>
        </mxCell>
        <mxCell id="EfarVEtjQRPdv6SVDDEV-247" value="Payment completed Email Request" style="text;html=1;align=left;verticalAlign=middle;whiteSpace=wrap;rounded=0;fontSize=6;" vertex="1" parent="1">
          <mxGeometry x="1062" y="669" width="120" height="8" as="geometry" />
        </mxCell>
        <mxCell id="EfarVEtjQRPdv6SVDDEV-248" value="" style="endArrow=classic;html=1;rounded=0;dashed=1;" edge="1" parent="1" target="EfarVEtjQRPdv6SVDDEV-243">
          <mxGeometry width="50" height="50" relative="1" as="geometry">
            <mxPoint x="1212" y="697" as="sourcePoint" />
            <mxPoint x="1070" y="697" as="targetPoint" />
          </mxGeometry>
        </mxCell>
        <mxCell id="EfarVEtjQRPdv6SVDDEV-249" value="Email acknowledgment" style="text;html=1;align=left;verticalAlign=middle;whiteSpace=wrap;rounded=0;fontSize=6;" vertex="1" parent="1">
          <mxGeometry x="1146" y="687" width="70" height="8" as="geometry" />
        </mxCell>
        <mxCell id="EfarVEtjQRPdv6SVDDEV-250" value="" style="html=1;points=[[0,0,0,0,5],[0,1,0,0,-5],[1,0,0,0,5],[1,1,0,0,-5]];perimeter=orthogonalPerimeter;outlineConnect=0;targetShapes=umlLifeline;portConstraint=eastwest;newEdgeStyle={&quot;curved&quot;:0,&quot;rounded&quot;:0};fillColor=#f5f5f5;fontColor=#333333;strokeColor=#666666;" vertex="1" parent="1">
          <mxGeometry x="1210" y="700" width="10" height="10" as="geometry" />
        </mxCell>
        <mxCell id="EfarVEtjQRPdv6SVDDEV-253" value="" style="endArrow=classic;html=1;rounded=0;dashed=1;" edge="1" parent="1" target="EfarVEtjQRPdv6SVDDEV-13">
          <mxGeometry width="50" height="50" relative="1" as="geometry">
            <mxPoint x="1210" y="710" as="sourcePoint" />
            <mxPoint x="1060" y="710" as="targetPoint" />
          </mxGeometry>
        </mxCell>
        <mxCell id="EfarVEtjQRPdv6SVDDEV-254" value="Email&amp;nbsp; with payment completion sent" style="text;html=1;align=left;verticalAlign=middle;whiteSpace=wrap;rounded=0;fontSize=6;" vertex="1" parent="1">
          <mxGeometry x="1114" y="712" width="102" height="8" as="geometry" />
        </mxCell>
        <mxCell id="EfarVEtjQRPdv6SVDDEV-257" value="Display available events" style="text;html=1;align=left;verticalAlign=middle;whiteSpace=wrap;rounded=0;fontSize=6;" vertex="1" parent="1">
          <mxGeometry x="30" y="232" width="70" height="7" as="geometry" />
        </mxCell>
        <mxCell id="EfarVEtjQRPdv6SVDDEV-258" value="" style="endArrow=classic;html=1;rounded=0;dashed=1;" edge="1" parent="1">
          <mxGeometry width="50" height="50" relative="1" as="geometry">
            <mxPoint x="769" y="231" as="sourcePoint" />
            <mxPoint x="224" y="231" as="targetPoint" />
          </mxGeometry>
        </mxCell>
        <mxCell id="EfarVEtjQRPdv6SVDDEV-259" value="" style="endArrow=none;dashed=1;html=1;rounded=0;entryX=0.436;entryY=1.014;entryDx=0;entryDy=0;entryPerimeter=0;" edge="1" parent="1" source="EfarVEtjQRPdv6SVDDEV-139" target="EfarVEtjQRPdv6SVDDEV-91">
          <mxGeometry width="50" height="50" relative="1" as="geometry">
            <mxPoint x="773" y="439" as="sourcePoint" />
            <mxPoint x="773" y="229" as="targetPoint" />
          </mxGeometry>
        </mxCell>
        <mxCell id="EfarVEtjQRPdv6SVDDEV-91" value="" style="html=1;points=[[0,0,0,0,5],[0,1,0,0,-5],[1,0,0,0,5],[1,1,0,0,-5]];perimeter=orthogonalPerimeter;outlineConnect=0;targetShapes=umlLifeline;portConstraint=eastwest;newEdgeStyle={&quot;curved&quot;:0,&quot;rounded&quot;:0};" vertex="1" parent="1">
          <mxGeometry x="769" y="259" width="10" height="30" as="geometry" />
        </mxCell>
        <mxCell id="EfarVEtjQRPdv6SVDDEV-260" value="" style="endArrow=none;dashed=1;html=1;rounded=0;entryX=0.436;entryY=1.014;entryDx=0;entryDy=0;entryPerimeter=0;" edge="1" parent="1" target="EfarVEtjQRPdv6SVDDEV-200">
          <mxGeometry width="50" height="50" relative="1" as="geometry">
            <mxPoint x="770" y="760" as="sourcePoint" />
            <mxPoint x="771" y="469" as="targetPoint" />
          </mxGeometry>
        </mxCell>
        <mxCell id="EfarVEtjQRPdv6SVDDEV-200" value="" style="html=1;points=[[0,0,0,0,5],[0,1,0,0,-5],[1,0,0,0,5],[1,1,0,0,-5]];perimeter=orthogonalPerimeter;outlineConnect=0;targetShapes=umlLifeline;portConstraint=eastwest;newEdgeStyle={&quot;curved&quot;:0,&quot;rounded&quot;:0};" vertex="1" parent="1">
          <mxGeometry x="767" y="510" width="10" height="30" as="geometry" />
        </mxCell>
        <mxCell id="EfarVEtjQRPdv6SVDDEV-264" value="" style="html=1;whiteSpace=wrap;fillColor=#dae8fc;strokeColor=#6c8ebf;" vertex="1" parent="1">
          <mxGeometry x="-1.5" y="800" width="43" height="20" as="geometry" />
        </mxCell>
        <mxCell id="EfarVEtjQRPdv6SVDDEV-266" value="&lt;font data-sider-select-id=&quot;a41b8385-73c4-4a0e-bef4-e86d60c38178&quot; style=&quot;font-size: 8px;&quot;&gt;External System&lt;/font&gt;" style="text;html=1;align=left;verticalAlign=middle;whiteSpace=wrap;rounded=0;fontSize=6;" vertex="1" parent="1">
          <mxGeometry x="48.5" y="800" width="68" height="8" as="geometry" />
        </mxCell>
      </root>
    </mxGraphModel>
  </diagram>
</mxfile>
